
<svg xmlns="http://www.w3.org/2000/svg" version="1.1" xmlns:xlink="http://www.w3.org/1999/xlink" preserveAspectRatio="none" x="0px" y="0px" width="1300px" height="350px" viewBox="0 0 1300 350">
<defs>
<g id="Layer4_0_FILL">
<path fill="#FFFFFF" stroke="none" d="
M 298.75 51.25
Q 247.5 0 175 0 102.5 0 51.25 51.25 0 102.5 0 175 0 247.5 51.25 298.75 102.5 350 175 350 247.5 350 298.75 298.75 350 247.5 350 175 350 102.5 298.75 51.25
M 59 140.8
Q 59 132.85 64.4 127.3 69.85 121.75 77.5 121.75 81.3 121.75 84.55 123.15 88.6 124.5 91.85 127.75
L 161.4 197.3
Q 167 202.9 167.05 210.7 167.15 218.45 161.75 223.85 156.3 229.3 148.55 229.15 147.8 229.15 147.15 229.1
L 78.55 229.1
Q 78.05 229.15 77.5 229.15 69.85 229.15 64.4 223.6 59 218 59 210.15
L 59 140.8
M 164.3 143.8
Q 168.1 141.9 172.7 141.9
L 271 141.9
Q 279 141.9 284.5 147.4 290.1 152.8 290.05 160.45 290.05 168.15 284.5 173.5 283.95 174.05 283.45 174.45
L 234.95 222.95
Q 234.65 223.35 234.25 223.75 228.85 229.15 221.05 229.05 213.25 228.95 207.7 223.4
L 158.65 174.35
Q 153.05 168.75 153 161 152.9 153.2 158.3 147.8 161 145.1 164.3 143.8 Z"/>
</g>

<g id="Layer1_0_FILL">
<path fill="#FFFFFF" stroke="none" d="
M 1244.8 117.75
L 1228.1 117.75 1228.1 228.55 1244.8 228.55 1244.8 117.75
M 1153.4 182.1
Q 1147.5 183.6 1143.2 186.4 1134.5 192.25 1134.5 204 1134.5 209.9 1136.55 214.55 1138.6 219.2 1142.7 222.7 1146.7 226.2 1151.85 227.95 1156.95 229.7 1163.15 229.7 1179.8 229.7 1189.6 218
L 1189.6 228.55 1204.85 228.55 1204.85 177.4
Q 1204.85 169.75 1202.6 164.2 1200.4 158.6 1195.95 155 1191.5 151.5 1185.75 149.7 1180.1 147.95 1173 147.95 1163.8 147.95 1155.65 150.85 1147.4 153.7 1140.2 159.45
L 1147.65 169.9
Q 1159.6 161.85 1170.65 161.85 1179.4 161.85 1183.85 165.8 1188.25 169.75 1188.25 177.7
L 1188.25 180.65 1166.6 180.65
Q 1159.25 180.65 1153.4 182.1
M 1155.75 195.1
Q 1160.25 192.25 1169.3 192.25
L 1188.1 192.25 1188.1 198.95
Q 1188.1 202.8 1186.65 205.8 1185.1 208.85 1182.1 211.05 1176.15 215.6 1168.2 215.6 1160.2 215.6 1155.75 212.5 1151.2 209.45 1151.2 203.6 1151.2 197.95 1155.75 195.1
M 1043.2 149.1
L 1043.2 197.8
Q 1043.2 213.3 1051.45 221.55 1059.75 229.7 1073.2 229.7 1081.4 229.7 1088.5 225.55 1092.05 223.45 1094.85 220.6 1097.6 217.75 1099.65 214.05
L 1099.65 228.55 1116.35 228.55 1116.35 149.1 1099.65 149.1 1099.65 192.1
Q 1099.65 197.65 1098.05 201.85 1096.45 206.05 1093.2 208.95 1086.8 214.7 1078.15 214.7 1069.05 214.7 1064.45 209.15 1059.9 203.7 1059.9 192.7
L 1059.9 149.1 1043.2 149.1
M 995.8 162
Q 1001.4 162 1006.7 163.6 1011.95 165.2 1016.8 168.4
L 1023.05 156.05
Q 1010.8 147.95 997.1 147.95 990.25 147.95 984.65 149.6 979.1 151.3 974.8 154.55 970.5 157.95 968.4 162.3 966.2 166.75 966.2 172.3 966.2 187.95 990.95 194.65
L 992.8 195.25
Q 1000.65 197.65 1004.6 200.35 1008.6 203.05 1008.6 206.05 1008.6 210.05 1005.35 212.65 1002.05 215.3 996.35 215.3 983.4 215.3 969.45 204.8
L 961.45 217.85
Q 966.2 221.55 977.95 226.6 987.25 229.7 995.95 229.7 1002.35 229.7 1007.6 228.05 1012.85 226.35 1016.9 222.95 1021.1 219.6 1023.1 215 1025.15 210.45 1025.15 204.8 1025.15 199.2 1023.1 194.95 1021.15 190.8 1017.05 188.1
L 1009.55 183.95 1002.35 181.25 986.25 176.3
Q 982.3 174.55 982.3 170.6 982.3 166.3 986.1 164.1 989.8 162 995.8 162
M 944.4 149.1
L 927.7 149.1 927.7 228.55 944.4 228.55 944.4 149.1
M 943.65 118.4
Q 940.55 115.3 936.25 115.3 931.85 115.3 928.7 118.4 925.6 121.55 925.6 125.85 925.6 130.15 928.7 133.3 931.85 136.4 936.25 136.4 940.55 136.4 943.65 133.3 946.8 130.15 946.8 125.85 946.8 121.55 943.65 118.4
M 848.75 149.1
L 831.4 149.1 863.4 228.55 882.5 228.55 914.45 149.1 897.15 149.1 872.95 209.15 848.75 149.1
M 739.85 171.9
Q 736.95 179.3 736.95 188.55 736.95 207.05 748.15 218.4 753.8 224.1 760.35 226.85 766.9 229.7 774.4 229.7 792.2 229.7 801.45 216.6
L 801.45 228.55 818.15 228.55 818.15 117.75 801.45 117.75 801.45 161.35
Q 796.55 154.65 790.25 151.3 783.8 147.95 775.85 147.95 760 147.95 748.45 159 742.7 164.5 739.85 171.9
M 753.7 189.2
Q 753.7 177.8 760.85 170.15 768 162.6 778 162.6 788.05 162.6 794.9 170.15 798.3 173.95 800.05 178.7 801.75 183.5 801.75 189.1 801.75 194.8 800.05 199.45 798.3 204.15 794.9 207.7 791.45 211.35 787.25 213.15 783.1 215 778.2 215 773.25 215 768.95 213.15 764.65 211.35 761 207.8 753.7 200.65 753.7 189.2
M 717.85 149.1
L 701.15 149.1 701.15 228.55 717.85 228.55 717.85 149.1
M 702.15 133.3
Q 705.3 136.4 709.7 136.4 714 136.4 717.1 133.3 720.25 130.15 720.25 125.85 720.25 121.55 717.1 118.4 714 115.3 709.7 115.3 705.3 115.3 702.15 118.4 699.05 121.55 699.05 125.85 699.05 130.15 702.15 133.3
M 660.3 149.1
L 660.3 192.1
Q 660.3 197.65 658.7 201.85 657.1 206.05 653.85 208.95 647.45 214.7 638.8 214.7 629.7 214.7 625.1 209.15 620.55 203.7 620.55 192.7
L 620.55 149.1 603.85 149.1 603.85 197.8
Q 603.85 213.3 612.1 221.55 620.4 229.7 633.85 229.7 642.05 229.7 649.15 225.55 652.7 223.45 655.5 220.6 658.25 217.75 660.3 214.05
L 660.3 228.55 677 228.55 677 149.1 660.3 149.1
M 502.25 171.85
Q 499.4 179.2 499.4 188.4 499.4 197.55 502.25 205 505.1 212.5 510.7 218.25 516.3 224.05 522.85 226.85 529.45 229.7 536.95 229.7 544.45 229.7 551.2 226.45 557.9 223.15 563.9 216.6
L 563.9 257.5 580.6 257.5 580.6 149.1 563.9 149.1 563.9 163.05
Q 554.05 147.95 538.1 147.95 522.15 147.95 510.75 159 505.1 164.5 502.25 171.85
M 516.15 189.05
Q 516.15 177.7 523.3 170.1 526.85 166.4 531.15 164.5 535.45 162.6 540.45 162.6 545.45 162.6 549.7 164.5 553.9 166.4 557.35 170.1 560.75 173.9 562.5 178.6 564.2 183.3 564.2 188.95 564.2 194.65 562.5 199.3 560.75 204 557.35 207.55 553.9 211.2 549.7 213.05 545.55 214.85 540.65 214.85 535.7 214.85 531.4 213.05 527.1 211.2 523.45 207.65 516.15 200.5 516.15 189.05
M 480.3 149.1
L 463.6 149.1 463.6 228.55 480.3 228.55 480.3 149.1
M 464.6 133.3
Q 467.75 136.4 472.15 136.4 476.45 136.4 479.55 133.3 482.7 130.15 482.7 125.85 482.7 121.55 479.55 118.4 476.45 115.3 472.15 115.3 467.75 115.3 464.6 118.4 461.5 121.55 461.5 125.85 461.5 130.15 464.6 133.3
M 439.4 117.75
L 422.7 117.75 422.7 228.55 439.4 228.55 439.4 117.75 Z"/>
</g>
</defs>

<g transform="matrix( 1, 0, 0, 1, 0,0) ">
<use xlink:href="#Layer4_0_FILL"/>
</g>

<g transform="matrix( 1, 0, 0, 1, 0,0) ">
<use xlink:href="#Layer1_0_FILL"/>
</g>
</svg>
